{
	"asset":{
		"generator":"Khronos glTF Blender I/O v4.2.57",
		"version":"2.0"
	},
	"scene":0,
	"scenes":[
		{
			"name":"Scene",
			"nodes":[
				1,
				3,
				5
			]
		}
	],
	"nodes":[
		{
			"mesh":0,
			"name":"halfslat-bottom",
			"translation":[
				0,
				0,
				-0.5
			]
		},
		{
			"children":[
				0
			],
			"name":"Node_5"
		},
		{
			"mesh":1,
			"name":"halfslat-bottom.001",
			"translation":[
				0,
				0,
				-0.5
			]
		},
		{
			"children":[
				2
			],
			"name":"Node_5.001"
		},
		{
			"mesh":2,
			"name":"halfslat-bottom.004",
			"translation":[
				0,
				0,
				-0.5
			]
		},
		{
			"children":[
				4
			],
			"name":"Node_5.003"
		}
	],
	"materials":[
		{
			"alphaCutoff":0.05000000074505806,
			"alphaMode":"MASK",
			"doubleSided":true,
			"name":"Material_0",
			"pbrMetallicRoughness":{
				"baseColorTexture":{
					"index":0
				},
				"metallicFactor":0
			}
		},
		{
			"alphaCutoff":0.05000000074505806,
			"alphaMode":"MASK",
			"doubleSided":true,
			"name":"Material_1",
			"pbrMetallicRoughness":{
				"baseColorTexture":{
					"index":1
				},
				"metallicFactor":0
			}
		},
		{
			"alphaCutoff":0.05000000074505806,
			"alphaMode":"MASK",
			"doubleSided":true,
			"name":"Material_1.002",
			"pbrMetallicRoughness":{
				"baseColorTexture":{
					"index":2
				},
				"metallicFactor":0
			}
		},
		{
			"alphaCutoff":0.05000000074505806,
			"alphaMode":"MASK",
			"doubleSided":true,
			"name":"Material_0.002",
			"pbrMetallicRoughness":{
				"baseColorTexture":{
					"index":3
				},
				"metallicFactor":0
			}
		},
		{
			"alphaCutoff":0.05000000074505806,
			"alphaMode":"MASK",
			"doubleSided":true,
			"name":"Material_1.004",
			"pbrMetallicRoughness":{
				"baseColorTexture":{
					"index":4
				},
				"metallicFactor":0
			}
		},
		{
			"alphaCutoff":0.05000000074505806,
			"alphaMode":"MASK",
			"doubleSided":true,
			"name":"Material_0.004",
			"pbrMetallicRoughness":{
				"baseColorTexture":{
					"index":5
				},
				"metallicFactor":0
			}
		},
		{
			"alphaCutoff":0.05000000074505806,
			"alphaMode":"MASK",
			"doubleSided":true,
			"name":"Material_1.001",
			"pbrMetallicRoughness":{
				"baseColorTexture":{
					"index":6
				},
				"metallicFactor":0
			}
		},
		{
			"alphaCutoff":0.05000000074505806,
			"alphaMode":"MASK",
			"doubleSided":true,
			"name":"Material_0.001",
			"pbrMetallicRoughness":{
				"baseColorTexture":{
					"index":7
				},
				"metallicFactor":0
			}
		}
	],
	"meshes":[
		{
			"name":"Mesh_2.002",
			"primitives":[
				{
					"attributes":{
						"POSITION":0,
						"NORMAL":1,
						"TEXCOORD_0":2
					},
					"indices":3,
					"material":0
				},
				{
					"attributes":{
						"POSITION":4,
						"NORMAL":5,
						"TEXCOORD_0":6
					},
					"indices":7,
					"material":1
				}
			]
		},
		{
			"name":"Mesh_3.003",
			"primitives":[
				{
					"attributes":{
						"POSITION":8,
						"NORMAL":9,
						"TEXCOORD_0":10
					},
					"indices":3,
					"material":2
				},
				{
					"attributes":{
						"POSITION":11,
						"NORMAL":12,
						"TEXCOORD_0":13
					},
					"indices":7,
					"material":3
				}
			]
		},
		{
			"name":"Mesh_3.004",
			"primitives":[
				{
					"attributes":{
						"POSITION":14,
						"NORMAL":15,
						"TEXCOORD_0":16
					},
					"indices":3,
					"material":4
				},
				{
					"attributes":{
						"POSITION":17,
						"NORMAL":18,
						"TEXCOORD_0":19
					},
					"indices":7,
					"material":5
				},
				{
					"attributes":{
						"POSITION":20,
						"NORMAL":21,
						"TEXCOORD_0":22
					},
					"indices":3,
					"material":6
				},
				{
					"attributes":{
						"POSITION":23,
						"NORMAL":24,
						"TEXCOORD_0":25
					},
					"indices":7,
					"material":7
				}
			]
		}
	],
	"textures":[
		{
			"sampler":0,
			"source":0
		},
		{
			"sampler":0,
			"source":1
		},
		{
			"sampler":0,
			"source":2
		},
		{
			"sampler":0,
			"source":3
		},
		{
			"sampler":0,
			"source":2
		},
		{
			"sampler":0,
			"source":3
		},
		{
			"sampler":0,
			"source":2
		},
		{
			"sampler":0,
			"source":3
		}
	],
	"images":[
		{
			"mimeType":"image/png",
			"name":"Image_0",
			"uri":"Image_0.png"
		},
		{
			"mimeType":"image/png",
			"name":"Image_1",
			"uri":"Image_1.png"
		},
		{
			"mimeType":"image/png",
			"name":"Image_1-1",
			"uri":"Image_1-1.png"
		},
		{
			"mimeType":"image/png",
			"name":"Image_0-1",
			"uri":"Image_0-1.png"
		}
	],
	"accessors":[
		{
			"bufferView":0,
			"componentType":5126,
			"count":72,
			"max":[
				0.375,
				0.0625,
				1
			],
			"min":[
				-0.375,
				0,
				0
			],
			"type":"VEC3"
		},
		{
			"bufferView":1,
			"componentType":5126,
			"count":72,
			"type":"VEC3"
		},
		{
			"bufferView":2,
			"componentType":5126,
			"count":72,
			"type":"VEC2"
		},
		{
			"bufferView":3,
			"componentType":5123,
			"count":108,
			"type":"SCALAR"
		},
		{
			"bufferView":4,
			"componentType":5126,
			"count":48,
			"max":[
				0.3125,
				0.125,
				1
			],
			"min":[
				-0.3125,
				0.0625,
				0
			],
			"type":"VEC3"
		},
		{
			"bufferView":5,
			"componentType":5126,
			"count":48,
			"type":"VEC3"
		},
		{
			"bufferView":6,
			"componentType":5126,
			"count":48,
			"type":"VEC2"
		},
		{
			"bufferView":7,
			"componentType":5123,
			"count":72,
			"type":"SCALAR"
		},
		{
			"bufferView":8,
			"componentType":5126,
			"count":72,
			"max":[
				0.5151650309562683,
				0.0625,
				0.8750000596046448
			],
			"min":[
				-0.375,
				0,
				-0.015165090560913086
			],
			"type":"VEC3"
		},
		{
			"bufferView":9,
			"componentType":5126,
			"count":72,
			"type":"VEC3"
		},
		{
			"bufferView":10,
			"componentType":5126,
			"count":72,
			"type":"VEC2"
		},
		{
			"bufferView":11,
			"componentType":5126,
			"count":48,
			"max":[
				0.5,
				0.125,
				0.875
			],
			"min":[
				-0.3125,
				0.0625,
				0
			],
			"type":"VEC3"
		},
		{
			"bufferView":12,
			"componentType":5126,
			"count":48,
			"type":"VEC3"
		},
		{
			"bufferView":13,
			"componentType":5126,
			"count":48,
			"type":"VEC2"
		},
		{
			"bufferView":14,
			"componentType":5126,
			"count":72,
			"max":[
				0.5151650309562683,
				0.0625,
				0.8750000596046448
			],
			"min":[
				-0.375,
				0,
				-0.015165090560913086
			],
			"type":"VEC3"
		},
		{
			"bufferView":15,
			"componentType":5126,
			"count":72,
			"type":"VEC3"
		},
		{
			"bufferView":16,
			"componentType":5126,
			"count":72,
			"type":"VEC2"
		},
		{
			"bufferView":17,
			"componentType":5126,
			"count":48,
			"max":[
				0.5,
				0.125,
				0.875
			],
			"min":[
				-0.3125,
				0.0625,
				0
			],
			"type":"VEC3"
		},
		{
			"bufferView":18,
			"componentType":5126,
			"count":48,
			"type":"VEC3"
		},
		{
			"bufferView":19,
			"componentType":5126,
			"count":48,
			"type":"VEC2"
		},
		{
			"bufferView":20,
			"componentType":5126,
			"count":72,
			"max":[
				0.5151650309562683,
				0.0625,
				1.015165090560913
			],
			"min":[
				-0.375,
				0,
				0.12499994039535522
			],
			"type":"VEC3"
		},
		{
			"bufferView":21,
			"componentType":5126,
			"count":72,
			"type":"VEC3"
		},
		{
			"bufferView":22,
			"componentType":5126,
			"count":72,
			"type":"VEC2"
		},
		{
			"bufferView":23,
			"componentType":5126,
			"count":48,
			"max":[
				0.5,
				0.125,
				1
			],
			"min":[
				-0.3125,
				0.0625,
				0.125
			],
			"type":"VEC3"
		},
		{
			"bufferView":24,
			"componentType":5126,
			"count":48,
			"type":"VEC3"
		},
		{
			"bufferView":25,
			"componentType":5126,
			"count":48,
			"type":"VEC2"
		}
	],
	"bufferViews":[
		{
			"buffer":0,
			"byteLength":864,
			"byteOffset":0,
			"target":34962
		},
		{
			"buffer":0,
			"byteLength":864,
			"byteOffset":864,
			"target":34962
		},
		{
			"buffer":0,
			"byteLength":576,
			"byteOffset":1728,
			"target":34962
		},
		{
			"buffer":0,
			"byteLength":216,
			"byteOffset":2304,
			"target":34963
		},
		{
			"buffer":0,
			"byteLength":576,
			"byteOffset":2520,
			"target":34962
		},
		{
			"buffer":0,
			"byteLength":576,
			"byteOffset":3096,
			"target":34962
		},
		{
			"buffer":0,
			"byteLength":384,
			"byteOffset":3672,
			"target":34962
		},
		{
			"buffer":0,
			"byteLength":144,
			"byteOffset":4056,
			"target":34963
		},
		{
			"buffer":0,
			"byteLength":864,
			"byteOffset":4200,
			"target":34962
		},
		{
			"buffer":0,
			"byteLength":864,
			"byteOffset":5064,
			"target":34962
		},
		{
			"buffer":0,
			"byteLength":576,
			"byteOffset":5928,
			"target":34962
		},
		{
			"buffer":0,
			"byteLength":576,
			"byteOffset":6504,
			"target":34962
		},
		{
			"buffer":0,
			"byteLength":576,
			"byteOffset":7080,
			"target":34962
		},
		{
			"buffer":0,
			"byteLength":384,
			"byteOffset":7656,
			"target":34962
		},
		{
			"buffer":0,
			"byteLength":864,
			"byteOffset":8040,
			"target":34962
		},
		{
			"buffer":0,
			"byteLength":864,
			"byteOffset":8904,
			"target":34962
		},
		{
			"buffer":0,
			"byteLength":576,
			"byteOffset":9768,
			"target":34962
		},
		{
			"buffer":0,
			"byteLength":576,
			"byteOffset":10344,
			"target":34962
		},
		{
			"buffer":0,
			"byteLength":576,
			"byteOffset":10920,
			"target":34962
		},
		{
			"buffer":0,
			"byteLength":384,
			"byteOffset":11496,
			"target":34962
		},
		{
			"buffer":0,
			"byteLength":864,
			"byteOffset":11880,
			"target":34962
		},
		{
			"buffer":0,
			"byteLength":864,
			"byteOffset":12744,
			"target":34962
		},
		{
			"buffer":0,
			"byteLength":576,
			"byteOffset":13608,
			"target":34962
		},
		{
			"buffer":0,
			"byteLength":576,
			"byteOffset":14184,
			"target":34962
		},
		{
			"buffer":0,
			"byteLength":576,
			"byteOffset":14760,
			"target":34962
		},
		{
			"buffer":0,
			"byteLength":384,
			"byteOffset":15336,
			"target":34962
		}
	],
	"samplers":[
		{
			"magFilter":9728,
			"minFilter":9984,
			"wrapS":33071,
			"wrapT":33071
		}
	],
	"buffers":[
		{
			"byteLength":15720,
			"uri":"rails.bin"
		}
	]
}
